HIERARCHY
ROOT root
{
	OFFSET 0.000000 0.000000 0.000000
	CHANNELS 6 Xposition Yposition Zposition Zrotation Yrotation Xrotation
	JOINT lhip
	{
		OFFSET 0.058581 -0.082280 -0.017664
		CHANNELS 3 Zrotation Yrotation Xrotation
		JOINT lknee
		{
			OFFSET 0.043451 -0.386469 0.008037
			CHANNELS 3 Zrotation Yrotation Xrotation
			JOINT lankle
			{
				OFFSET -0.014790 -0.426874 -0.037428
				CHANNELS 3 Zrotation Yrotation Xrotation
				JOINT ltoe
				{
					OFFSET 0.041054 -0.060286 0.122042
					CHANNELS 3 Zrotation Yrotation Xrotation
					End Site
					{
						OFFSET 0.000000 0.000000 0.000000
					}
				}
			}
		}
	}
	JOINT rhip
	{
		OFFSET -0.060310 -0.090513 -0.013543
		CHANNELS 3 Zrotation Yrotation Xrotation
		JOINT rknee
		{
			OFFSET -0.043257 -0.383688 -0.004843
			CHANNELS 3 Zrotation Yrotation Xrotation
			JOINT rankle
			{
				OFFSET 0.019056 -0.420046 -0.034562
				CHANNELS 3 Zrotation Yrotation Xrotation
				JOINT rtoe
				{
					OFFSET -0.034840 -0.062106 0.130323
					CHANNELS 3 Zrotation Yrotation Xrotation
					End Site
					{
						OFFSET 0.000000 0.000000 0.000000
					}
				}
			}
		}
	}
	JOINT lowerback
	{
		OFFSET 0.004439 0.124404 -0.038385
		CHANNELS 3 Zrotation Yrotation Xrotation
		JOINT upperback
		{
			OFFSET 0.004488 0.137956 0.026820
			CHANNELS 3 Zrotation Yrotation Xrotation
			JOINT chest
			{
				OFFSET -0.002265 0.056032 0.002855
				CHANNELS 3 Zrotation Yrotation Xrotation
				JOINT lowerneck
				{
					OFFSET -0.013390 0.211636 -0.033468
					CHANNELS 3 Zrotation Yrotation Xrotation
					JOINT upperneck
					{
						OFFSET 0.010113 0.088937 0.050410
						CHANNELS 3 Zrotation Yrotation Xrotation
						End Site
						{
							OFFSET 0.000000 0.000000 0.000000
						}
					}
				}
				JOINT lclavicle
				{
					OFFSET 0.071702 0.114000 -0.018898
					CHANNELS 3 Zrotation Yrotation Xrotation
					JOINT lshoulder
					{
						OFFSET 0.122921 0.045205 -0.019046
						CHANNELS 3 Zrotation Yrotation Xrotation
						JOINT lelbow
						{
							OFFSET 0.255332 -0.015649 -0.022946
							CHANNELS 3 Zrotation Yrotation Xrotation
							JOINT lwrist
							{
								OFFSET 0.265709 0.012698 -0.007375
								CHANNELS 3 Zrotation Yrotation Xrotation
								End Site
								{
									OFFSET 0.000000 0.000000 0.000000
								}
							}
						}
					}
				}
				JOINT rclavicle
				{
					OFFSET -0.082954 0.112472 -0.023707
					CHANNELS 3 Zrotation Yrotation Xrotation
					JOINT rshoulder
					{
						OFFSET -0.113228 0.046853 -0.008472
						CHANNELS 3 Zrotation Yrotation Xrotation
						JOINT relbow
						{
							OFFSET -0.260127 -0.014369 -0.031269
							CHANNELS 3 Zrotation Yrotation Xrotation
							JOINT rwrist
							{
								OFFSET -0.269108 0.006794 -0.006027
								CHANNELS 3 Zrotation Yrotation Xrotation
								End Site
								{
									OFFSET 0.000000 0.000000 0.000000
								}
							}
						}
					}
				}
			}
		}
	}
}
MOTION
Frames: 7
Frame Time: 0.033333
-0.129028 -0.772830 0.838164 -140.244470 -3.247416 113.320603 16.173387 4.418774 3.949265 -8.817750 -16.115976 25.536095 -12.983377 10.420033 -3.526152 0.000000 -0.000000 0.000000 -3.669018 -6.482140 -73.326523 9.291226 -27.747605 59.467859 -10.716358 -8.987469 -18.724972 0.000000 -0.000000 0.000000 -7.120629 -10.639325 29.295138 1.133527 -2.216509 10.797465 2.922700 -2.515079 -5.077356 -4.232546 7.760205 -14.266925 10.865734 0.957721 -15.381181 -30.094688 -17.601912 -0.455728 -26.023159 -30.614639 2.019940 35.464374 -42.045204 -34.638999 18.455959 -9.895189 8.603746 27.786436 13.847898 5.703450 38.955478 3.348517 -3.683045 -12.493757 39.654812 -25.250865 -8.605782 8.657953 -19.936935 
-0.180669 -0.679258 0.838346 -144.522393 -5.683259 113.243796 9.144844 -1.667832 8.206856 -12.556551 -20.857678 32.393709 -10.646325 10.710294 -2.323129 0.000000 -0.000000 0.000000 0.188065 -3.607132 -70.101887 12.022225 -26.160295 45.000768 -11.658397 -9.947192 -14.305632 0.000000 -0.000000 0.000000 -7.612038 -9.295653 26.419014 -0.047535 -1.025958 13.658155 2.425674 -1.596416 -5.898695 -6.754213 5.455053 -12.594718 10.426157 2.724546 -15.793615 -28.822440 -15.677177 -0.392794 -29.442566 -27.168089 5.931986 42.664397 -49.676365 -39.978346 15.743573 -10.654962 6.665756 26.223120 13.755204 5.999814 38.835877 4.463685 -3.247765 -12.942452 38.151584 -29.165413 -6.484527 8.827256 -21.506687 
-0.229796 -0.581354 0.827191 -146.928425 -8.229619 111.358740 7.085348 -2.203009 7.441254 -17.732675 -11.248170 47.743166 -10.724434 9.211014 -4.414850 0.000000 -0.000000 0.000000 2.883891 -1.804973 -61.778408 9.980545 -25.738759 46.483011 -19.472784 -16.913469 -23.190261 0.000000 -0.000000 0.000000 -8.044751 -6.879672 25.638113 -0.850243 -0.566744 14.894856 2.290265 -1.396896 -6.069017 -6.642641 4.718591 -11.330609 8.910923 1.715546 -16.586028 -26.916714 -13.386698 -0.089641 -32.627495 -25.046710 8.065839 54.373978 -56.396139 -50.889500 8.731274 -11.021547 2.488620 25.315051 14.026170 5.545238 38.577341 6.475933 -1.255724 -15.587765 35.369783 -31.422165 -3.221110 8.553700 -22.092402 
-0.272834 -0.485922 0.815291 -147.361420 -10.287225 111.329111 8.081471 -0.353512 -2.073598 -12.800728 -0.232345 68.296043 -7.232811 13.374334 -4.824750 0.000000 -0.000000 0.000000 2.825250 -0.766843 -57.015988 6.912383 -24.023586 54.009657 -21.966938 -19.347931 -30.775010 0.000000 -0.000000 0.000000 -7.426791 -4.932761 23.671138 -0.932965 0.021201 15.487159 1.834915 -1.062794 -7.340202 -6.709031 2.016535 -9.107231 8.718774 -0.193940 -18.591854 -26.414933 -10.972269 0.443045 -34.515656 -24.014591 7.947075 72.782758 -62.752372 -67.702466 0.568868 -10.771001 -2.842106 24.177013 13.038236 5.326317 39.103480 8.341908 -1.036621 -17.154279 34.499334 -31.400332 1.824099 7.795022 -25.816446 
-0.310124 -0.391441 0.815824 -149.936760 -8.504425 111.342003 10.189134 -1.601335 -14.543442 -9.387491 5.789749 87.507234 -3.450195 15.892787 -7.500285 0.000000 -0.000000 0.000000 4.430832 2.330093 -49.350659 6.518991 -24.471924 56.648253 -20.398957 -18.924801 -34.684162 0.000000 -0.000000 0.000000 -4.996623 -1.255240 22.748970 -0.772466 2.176956 15.400400 0.955869 0.578585 -7.305595 -6.248420 -0.984656 -8.374020 8.185079 -4.522535 -20.884892 -22.974664 -6.998353 0.109819 -44.476163 -24.584899 10.700267 104.854575 -63.071395 -99.580547 1.412638 -11.257926 -13.823364 20.854668 11.096106 4.548524 41.969486 10.310779 -1.766902 -20.156483 37.312331 -31.084980 0.413012 6.667260 -29.614786 
-0.345893 -0.290513 0.825346 -153.749706 -7.932609 111.597261 10.997292 -4.736842 -27.827746 -8.317717 9.153637 97.343995 -0.502974 15.195007 -9.512630 0.000000 -0.000000 0.000000 6.582796 1.663427 -38.026651 9.172305 -20.774197 52.998950 -18.632313 -15.961832 -36.593311 0.000000 -0.000000 0.000000 -5.067748 4.582912 20.355897 -0.771566 3.991624 16.718709 1.096372 2.359076 -7.368142 -4.494929 -2.514019 -8.249272 6.703672 -11.021785 -21.249835 -19.022645 -1.761234 -1.794236 -56.719205 -22.691906 16.463528 124.035934 -61.172435 -113.290713 0.896826 -11.447118 -9.197973 17.994726 8.646929 4.073848 45.969219 10.381696 1.062926 -24.509497 40.561918 -32.973470 -1.013115 7.605911 -33.977452 
-0.379343 -0.178929 0.842741 -157.296763 -7.669128 111.538653 13.204351 -7.649966 -39.932128 -5.311222 10.835654 96.779605 2.782116 14.846967 -8.781015 0.000000 -0.000000 0.000000 7.617702 0.151758 -23.423516 11.764177 -14.834320 43.707463 -15.694366 -11.238074 -33.973578 0.000000 -0.000000 0.000000 -6.407023 11.985782 18.017304 -0.048747 5.233090 17.727269 1.509057 4.254545 -8.825340 -2.762812 -7.414470 -4.696075 7.073727 -17.252946 -21.070758 -17.571505 2.775520 -1.259532 -64.975698 -19.109851 21.838600 136.234304 -61.643893 -125.027790 -1.560763 -13.661287 -17.036355 16.887684 5.488750 4.317604 50.095466 8.268538 3.858482 -27.648582 42.864883 -31.596095 -0.952672 8.079882 -34.840633 
